<svg xmlns="http://www.w3.org/2000/svg" xmlns:xlink="http://www.w3.org/1999/xlink" width="32" height="32" viewBox="0 0 32 32">
  <defs>
    <path id="check_3-a" d="M16,9.33333333 C12.32,9.33333333 9.33333333,12.32 9.33333333,16 C9.33333333,19.68 12.32,22.6666667 16,22.6666667 C19.68,22.6666667 22.6666667,19.68 22.6666667,16 C22.6666667,12.32 19.68,9.33333333 16,9.33333333 L16,9.33333333 Z M16,2.66666667 C8.64,2.66666667 2.66666667,8.64 2.66666667,16 C2.66666667,23.36 8.64,29.3333333 16,29.3333333 C23.36,29.3333333 29.3333333,23.36 29.3333333,16 C29.3333333,8.64 23.36,2.66666667 16,2.66666667 L16,2.66666667 Z M16,26.6666667 C10.1066667,26.6666667 5.33333333,21.8933333 5.33333333,16 C5.33333333,10.1066667 10.1066667,5.33333333 16,5.33333333 C21.8933333,5.33333333 26.6666667,10.1066667 26.6666667,16 C26.6666667,21.8933333 21.8933333,26.6666667 16,26.6666667 L16,26.6666667 Z"/>
  </defs>
  <g fill="none" fill-rule="evenodd" transform="translate(-417 -2600)">
    <g transform="translate(417 2600)">
      <mask id="check_3-b" fill="#fff">
        <use xlink:href="#check_3-a"/>
      </mask>
      <g fill="#5856D6" mask="url(#check_3-b)">
        <rect width="32" height="32"/>
      </g>
    </g>
  </g>
</svg>
