<svg xmlns="http://www.w3.org/2000/svg" xmlns:xlink="http://www.w3.org/1999/xlink" width="32" height="32" viewBox="0 0 32 32">
  <defs>
    <path id="check_2-a" d="M16,2.66666667 C8.64,2.66666667 2.66666667,8.64 2.66666667,16 C2.66666667,23.36 8.64,29.3333333 16,29.3333333 C23.36,29.3333333 29.3333333,23.36 29.3333333,16 C29.3333333,8.64 23.36,2.66666667 16,2.66666667 L16,2.66666667 Z M16,26.6666667 C10.1066667,26.6666667 5.33333333,21.8933333 5.33333333,16 C5.33333333,10.1066667 10.1066667,5.33333333 16,5.33333333 C21.8933333,5.33333333 26.6666667,10.1066667 26.6666667,16 C26.6666667,21.8933333 21.8933333,26.6666667 16,26.6666667 L16,26.6666667 Z"/>
  </defs>
  <g fill="none" fill-rule="evenodd" transform="translate(-310 -2600)">
    <g transform="translate(310 2600)">
      <mask id="check_2-b" fill="#fff">
        <use xlink:href="#check_2-a"/>
      </mask>
      <g fill="#C7C7CC" mask="url(#check_2-b)">
        <rect width="32" height="32"/>
      </g>
    </g>
  </g>
</svg>
